PathFileType	4	(X/Y/Z)	s03c0201.trc
DataRate	CameraRate	NumFrames	NumMarkers	Units	OrigDataRate	OrigDataStartFrame	OrigNumFrames
200	200	5	52	mm	200	1500	2000
Frame#	Time	racr			lacr			c7			jug			rlel			rdr			llel			ldr			s2			lic			ric			lasi			rasi			rpsi			lpsi			rgt			lgt			rth1			rth2			rth3			rth4			rlfc			rmfc			rsh1			rsh2			rsh3			rsh4			rlmal			rmmal			rcal			rtoe			rmt5			rmt1			lth1			lth2			lth4			lth3			llfc			lmfc			lsh1			lsh2			lsh3			lsh4			llmal			lmmal			lcal			ltoe			lmt1			lmt5			SBIKE			LBIKE			RBIKE			
		X1	Y1	Z1	X2	Y2	Z2	X3	Y3	Z3	X4	Y4	Z4	X5	Y5	Z5	X6	Y6	Z6	X7	Y7	Z7	X8	Y8	Z8	X9	Y9	Z9	X10	Y10	Z10	X11	Y11	Z11	X12	Y12	Z12	X13	Y13	Z13	X14	Y14	Z14	X15	Y15	Z15	X16	Y16	Z16	X17	Y17	Z17	X18	Y18	Z18	X19	Y19	Z19	X20	Y20	Z20	X21	Y21	Z21	X22	Y22	Z22	X23	Y23	Z23	X24	Y24	Z24	X25	Y25	Z25	X26	Y26	Z26	X27	Y27	Z27	X28	Y28	Z28	X29	Y29	Z29	X30	Y30	Z30	X31	Y31	Z31	X32	Y32	Z32	X33	Y33	Z33	X34	Y34	Z34	X35	Y35	Z35	X36	Y36	Z36	X37	Y37	Z37	X38	Y38	Z38	X39	Y39	Z39	X40	Y40	Z40	X41	Y41	Z41	X42	Y42	Z42	X43	Y43	Z43	X44	Y44	Z44	X45	Y45	Z45	X46	Y46	Z46	X47	Y47	Z47	X48	Y48	Z48	X49	Y49	Z49	X50	Y50	Z50	X51	Y51	Z51	X52	Y52	Z52	
1500	7.5000	466.182399	1426.008156	-119.597291	417.706418	1435.031846	-436.710150	369.232938	1513.255874	-271.327461	395.870323	1341.862435	-273.640488	520.428093	1188.022106	27.846085	724.703189	989.424301	-39.137021	498.508518	1178.922993	-510.531502	723.911925	976.017957	-451.563530	-123.060781	1190.035082	-225.161185	31.875954	1234.151315	-425.482170	51.802939	1230.676084	-52.860906	60.702738	1167.370715	-380.151440	84.869302	1159.572336	-96.594071	-97.447318	1241.435982	-180.997283	-97.065886	1242.257137	-263.122522	-5.218132	1105.819302	-42.525858	-7.020666	1143.174611	-435.225553	56.289057	957.120035	-26.855386	115.268173	890.872522	-27.595358	135.948881	808.184022	-41.201106	147.763417	907.949557	-34.891606	179.195300	691.404694	-76.265193	189.202420	677.033842	-188.603392	160.964127	522.945439	-42.020596	180.876030	436.203740	-53.511764	154.253126	351.806253	-53.662775	209.066604	437.072476	-79.442884	142.312816	217.742472	-71.633472	166.247716	233.442723	-155.840344	91.239662	160.374973	-108.209111	399.498778	200.607502	-114.104318	285.246281	166.125598	-41.182304	306.153672	188.318203	-155.642694	108.352588	1071.420716	-480.533003	192.456593	1061.850452	-499.975173	208.462691	1094.002482	-489.702590	262.769057	1007.571777	-513.494085	390.054985	952.125503	-519.247955	413.191906	943.699070	-388.893682	280.831629	819.722831	-508.960990	248.027859	748.069097	-474.924135	175.769680	698.035373	-453.913843	275.895595	733.887825	-451.719908	95.315544	608.189622	-411.874502	135.104823	622.608363	-326.351144	20.887063	587.013062	-355.428927	313.721669	490.200857	-363.420544	224.087621	512.565401	-316.863639	190.161713	499.567550	-430.913491	-215.191938	944.579040	-233.842581	-9.312407	80.569043	-433.561101	-9.290195	80.682392	-33.161339	
1501	7.5050	466.348707	1426.205187	-119.645094	418.405170	1435.343047	-436.704189	369.733259	1513.507620	-271.502839	396.199654	1342.353009	-273.660490	520.201332	1188.024010	27.593559	724.642457	989.442194	-39.316113	498.780544	1179.101379	-510.411183	724.068998	976.059756	-451.818965	-122.992750	1190.715732	-225.441951	32.409446	1234.483969	-425.906947	51.966458	1231.261078	-52.676030	60.979065	1167.680925	-380.491815	84.900946	1160.031750	-96.749560	-97.229428	1242.015579	-181.373437	-96.848969	1242.817344	-263.643661	-5.069709	1106.628907	-42.783515	-7.025163	1143.193990	-435.524685	56.701877	957.823600	-26.927460	115.838807	891.650435	-27.641871	136.571191	809.010843	-41.212265	148.284043	908.799961	-35.129143	179.663633	692.189245	-76.149751	189.735884	677.682576	-188.448790	161.467426	523.652534	-41.847997	181.609181	436.877970	-53.228240	155.085737	352.500518	-53.344444	209.743128	437.846201	-79.076269	143.396100	218.406592	-71.314154	167.247425	234.155960	-155.517115	92.295114	161.036968	-107.886185	400.543127	200.947059	-114.112105	286.356877	166.438183	-41.109472	307.137726	188.678920	-155.523826	107.893330	1070.873955	-480.845667	191.924480	1060.917322	-500.503148	208.133430	1092.950993	-490.322451	261.969248	1006.327212	-514.075908	388.999618	950.324110	-520.043444	412.193738	941.984598	-389.770345	279.179861	818.592475	-509.893652	246.371846	746.739895	-475.273738	173.940404	697.077811	-454.190127	274.147956	732.619887	-451.989737	93.380679	607.268391	-411.747008	132.730505	622.166507	-326.419675	19.036925	585.598965	-355.204044	312.500233	490.680647	-363.339463	222.624125	512.269570	-316.821755	188.803069	499.176520	-430.771082	-215.179368	944.615473	-233.843203	-9.315418	80.576190	-433.543847	-9.300008	80.690443	-33.150789	
1502	7.5100	466.537032	1426.460041	-119.714657	419.119509	1435.666691	-436.601040	370.183759	1513.757422	-271.693467	396.515261	1342.859934	-273.746816	520.029672	1188.052832	27.300186	724.634698	989.489881	-39.518580	499.119503	1179.277518	-510.248393	724.250563	976.100025	-452.050514	-122.860033	1191.412927	-225.779398	32.939396	1234.891366	-426.310419	51.993581	1231.881138	-52.962503	61.243834	1168.059861	-380.815882	84.925590	1160.550011	-96.903771	-97.034935	1242.530109	-181.750195	-96.717997	1243.382953	-264.177178	-4.894056	1107.330069	-43.014429	-7.068250	1143.176558	-435.849431	57.013862	958.700344	-26.570240	116.454057	892.415072	-27.749984	137.263552	809.820846	-41.113157	148.867221	909.484128	-35.601569	180.138175	692.965491	-75.993861	190.228075	678.187324	-188.253661	161.962803	524.312591	-41.566122	182.231064	437.635912	-52.850070	155.848615	353.205001	-52.993917	210.444208	438.557210	-78.767483	144.288514	219.002854	-71.122180	168.083112	234.773716	-155.141531	93.088002	161.697103	-107.628722	401.434873	201.127162	-114.097195	287.303455	166.703189	-41.012258	308.046647	189.049895	-155.396279	107.392656	1070.349098	-481.216793	191.360270	1060.002768	-500.995599	207.679277	1092.050874	-490.892694	261.384334	1004.959825	-514.266732	387.926401	948.534860	-520.863978	410.850805	940.379461	-390.258681	277.904210	816.972363	-509.876585	244.707998	745.586806	-475.685485	172.180700	696.077691	-454.419456	272.502389	731.299570	-452.285499	91.460710	606.282122	-411.648887	130.767880	621.394424	-326.385281	17.301320	584.126506	-354.947991	311.320663	491.257752	-363.242839	221.268844	512.021934	-316.766608	187.546177	498.732346	-430.552476	-215.164116	944.634992	-233.820212	-9.326565	80.601184	-433.529567	-9.305540	80.699212	-33.153544	
1503	7.5150	466.764181	1426.831597	-119.865734	419.777415	1436.008981	-436.534832	370.606737	1514.029845	-271.911707	396.908086	1343.391149	-273.866364	519.952085	1188.131913	27.002303	724.642747	989.524884	-39.776996	499.484737	1179.496005	-510.119715	724.482662	976.163077	-452.271521	-122.957432	1192.375417	-223.898175	33.414673	1235.203330	-426.693936	52.059004	1232.471098	-53.209298	61.471160	1168.340182	-381.137462	84.925186	1160.872483	-97.023655	-96.848964	1243.135176	-182.115662	-96.508257	1243.894314	-264.684370	-4.681627	1108.061575	-43.219483	-7.158120	1143.109825	-436.139331	57.568817	959.574673	-26.266715	116.926897	893.195961	-27.806748	137.863142	810.554263	-41.036829	149.418666	910.229243	-36.167511	180.600594	693.701218	-75.779479	190.711201	678.717783	-188.138511	162.495788	525.000159	-41.343866	182.844430	438.368689	-52.519418	156.582925	353.816389	-52.584118	211.072752	439.284734	-78.379949	145.181490	219.613127	-70.747402	168.851217	235.402164	-154.790987	93.926615	162.449836	-107.294332	402.276851	201.310603	-114.171076	288.135638	166.942638	-40.904579	308.803221	189.367407	-155.245796	106.911277	1069.730683	-481.529291	190.803605	1059.069438	-501.501208	207.268101	1091.040747	-491.482394	261.271019	1003.556717	-514.180703	386.883458	946.786756	-521.626031	409.970851	938.773882	-391.003216	276.281795	815.940182	-510.698594	243.110722	744.300853	-475.948305	170.524195	695.005153	-454.611862	270.919906	730.059224	-452.595577	89.655337	605.272425	-411.557672	128.868332	620.716600	-326.364577	15.638253	582.647281	-354.797303	310.285071	491.809511	-363.275477	220.016228	511.815212	-316.700464	186.427607	498.443784	-430.436033	-215.152906	944.664216	-233.797189	-9.333533	80.620082	-433.519285	-9.293361	80.719991	-33.151917	
1504	7.5200	466.928412	1427.141983	-120.034875	420.482916	1436.359641	-436.475584	370.995798	1514.330966	-272.128417	397.245817	1343.789621	-273.943730	519.975189	1188.289056	26.679526	724.700882	989.582430	-40.048953	499.873211	1179.818323	-509.965084	724.731807	976.243546	-452.423961	-122.856370	1192.936545	-224.246456	33.941019	1235.481431	-427.116977	52.087676	1232.991180	-53.446844	61.625874	1168.565478	-381.455217	84.933336	1161.277011	-97.156581	-96.705755	1243.535775	-182.497696	-96.353365	1244.350623	-265.175004	-4.464955	1108.683512	-43.385045	-7.373711	1143.198013	-436.345325	58.056663	960.149877	-26.273823	117.464459	893.927951	-27.864668	138.366909	811.238832	-40.938694	149.878832	911.008772	-36.382393	181.001673	694.285637	-75.622588	191.864112	678.991696	-188.058333	162.994436	525.582817	-41.144870	183.489123	438.895586	-52.185907	157.267110	354.329850	-52.247566	211.697167	439.805097	-78.137119	145.867071	220.169794	-70.491669	169.608099	235.940615	-154.448883	94.568605	163.072538	-106.951197	402.959416	201.392146	-114.242819	288.912783	167.080478	-40.833797	309.440484	189.589941	-155.135118	106.425492	1069.126667	-481.858880	190.219282	1058.137622	-501.934804	206.804902	1090.071177	-491.986067	260.475342	1002.360389	-514.677931	385.842468	945.195159	-522.378100	408.971908	937.188612	-391.848298	275.108429	814.357684	-510.638272	241.620030	743.107830	-476.206448	168.850652	694.038016	-454.829650	269.383402	728.831741	-452.948919	88.001215	604.306109	-411.427564	127.107486	620.131629	-326.242918	14.098894	581.211216	-354.588130	309.373422	492.527638	-363.367442	218.858834	511.640414	-316.625830	185.470990	497.966643	-429.997202	-215.136036	944.681244	-233.772778	-9.328885	80.614896	-433.509745	-9.300140	80.722193	-33.139075	
